<svg width="177" height="177" viewBox="0 0 177 177" fill="none" xmlns="http://www.w3.org/2000/svg">
<circle opacity="0.3" cx="88.5" cy="88.5" r="87" transform="rotate(-90 88.5 88.5)" stroke="white" stroke-width="3" stroke-linecap="round" stroke-dasharray="8 8"/>
<path opacity="0.3" d="M77.7054 31.6773C79.8365 31.2749 82.0089 30.9894 84.2158 30.8278C84.2347 31.1023 84.472 31.3101 84.7469 31.2924C85.9876 31.2122 87.2392 31.1715 88.5004 31.1715C89.7616 31.1715 91.0132 31.2122 92.2539 31.2924C92.5288 31.3101 92.7661 31.1023 92.785 30.8278C94.9919 30.9894 97.1643 31.2749 99.2954 31.6773C99.2432 31.9474 99.4191 32.2092 99.6893 32.2627C102.166 32.7526 104.584 33.4019 106.935 34.1996C107.196 34.2881 107.479 34.149 107.568 33.8889C109.647 34.6145 111.671 35.4554 113.634 36.404C113.513 36.6512 113.614 36.9498 113.861 37.0718C116.113 38.1841 118.28 39.4399 120.353 40.8273C120.582 40.9805 120.891 40.9197 121.045 40.6917C122.857 41.9279 124.596 43.2644 126.252 44.6932C126.072 44.9008 126.093 45.2155 126.3 45.3972C128.181 47.0479 129.952 48.8198 131.603 50.7005C131.785 50.9075 132.1 50.9285 132.307 50.7479C133.736 52.4045 135.073 54.1429 136.309 55.9553C136.081 56.1093 136.02 56.4188 136.173 56.6477C137.56 58.72 138.816 60.8878 139.929 63.139C140.051 63.3859 140.349 63.4876 140.596 63.3668C141.545 65.3293 142.386 67.3536 143.112 69.432C142.851 69.5216 142.712 69.8047 142.801 70.0655C143.598 72.4159 144.248 74.8348 144.738 77.3111C144.791 77.5813 145.053 77.7572 145.323 77.705C145.726 79.8361 146.011 82.0085 146.173 84.2154C145.898 84.2343 145.69 84.4716 145.708 84.7465C145.788 85.9872 145.829 87.2388 145.829 88.5C145.829 89.7612 145.788 91.0128 145.708 92.2535C145.69 92.5284 145.898 92.7657 146.173 92.7846C146.011 94.9914 145.726 97.1639 145.323 99.295C145.053 99.2428 144.791 99.4187 144.738 99.6889C144.248 102.165 143.598 104.584 142.801 106.934C142.712 107.195 142.851 107.478 143.112 107.568C142.386 109.646 141.545 111.671 140.596 113.633C140.349 113.512 140.051 113.614 139.929 113.861C138.816 116.112 137.56 118.28 136.173 120.352C136.02 120.581 136.081 120.891 136.309 121.045C135.073 122.857 133.736 124.596 132.307 126.252C132.1 126.071 131.785 126.092 131.603 126.299C129.952 128.18 128.181 129.952 126.3 131.603C126.093 131.784 126.072 132.099 126.252 132.307C124.596 133.736 122.857 135.072 121.045 136.308C120.891 136.08 120.582 136.019 120.353 136.173C118.28 137.56 116.113 138.816 113.861 139.928C113.614 140.05 113.513 140.349 113.634 140.596C111.671 141.545 109.647 142.385 107.568 143.111C107.479 142.851 107.196 142.712 106.935 142.8C104.584 143.598 102.166 144.247 99.6893 144.737C99.4191 144.791 99.2432 145.053 99.2954 145.323C97.1643 145.725 94.9919 146.011 92.785 146.172C92.7661 145.898 92.5288 145.69 92.2539 145.708C91.0132 145.788 89.7616 145.829 88.5004 145.829C87.2392 145.829 85.9876 145.788 84.7469 145.708C84.472 145.69 84.2347 145.898 84.2158 146.172C82.0089 146.011 79.8365 145.725 77.7054 145.323C77.7576 145.053 77.5817 144.791 77.3115 144.737C74.8352 144.247 72.4163 143.598 70.0659 142.8C69.8051 142.712 69.522 142.851 69.4325 143.111C67.3541 142.385 65.3298 141.545 63.3672 140.596C63.488 140.349 63.3864 140.05 63.1394 139.928C60.8882 138.816 58.7204 137.56 56.6481 136.173C56.4193 136.019 56.1097 136.08 55.9557 136.308C54.1433 135.072 52.4049 133.736 50.7483 132.307C50.929 132.099 50.908 131.784 50.701 131.603C48.8202 129.952 47.0483 128.18 45.3976 126.299C45.216 126.092 44.9012 126.071 44.6937 126.252C43.2648 124.596 41.9283 122.857 40.6922 121.045C40.9201 120.891 40.9809 120.581 40.8277 120.352C39.4403 118.28 38.1845 116.112 37.0722 113.861C36.9502 113.614 36.6516 113.512 36.4044 113.633C35.4558 111.671 34.6149 109.646 33.8893 107.568C34.1494 107.478 34.2885 107.195 34.2 106.934C33.4023 104.584 32.753 102.165 32.2631 99.6889C32.2096 99.4187 31.9478 99.2428 31.6777 99.295C31.2753 97.1639 30.9898 94.9915 30.8282 92.7846C31.1027 92.7657 31.3105 92.5284 31.2928 92.2535C31.2126 91.0128 31.1719 89.7612 31.1719 88.5C31.1719 87.2388 31.2126 85.9872 31.2928 84.7465C31.3105 84.4716 31.1027 84.2343 30.8282 84.2154C30.9898 82.0085 31.2753 79.8361 31.6777 77.705C31.9478 77.7572 32.2096 77.5813 32.2631 77.3111C32.753 74.8348 33.4023 72.4159 34.2 70.0655C34.2885 69.8047 34.1494 69.5216 33.8893 69.4321C34.6149 67.3536 35.4558 65.3293 36.4044 63.3668C36.6516 63.4876 36.9502 63.386 37.0722 63.139C38.1845 60.8878 39.4403 58.72 40.8277 56.6477C40.9809 56.4189 40.9201 56.1093 40.6921 55.9553C41.9283 54.1429 43.2648 52.4045 44.6936 50.7479C44.9012 50.9286 45.216 50.9075 45.3976 50.7005C47.0483 48.8198 48.8202 47.0479 50.7009 45.3972C50.9079 45.2156 50.929 44.9008 50.7483 44.6933C52.4049 43.2644 54.1433 41.9279 55.9557 40.6917C56.1097 40.9197 56.4193 40.9805 56.6481 40.8273C58.7204 39.4399 60.8882 38.1841 63.1394 37.0718C63.3863 36.9498 63.488 36.6512 63.3672 36.404C65.3297 35.4554 67.354 34.6145 69.4324 33.8889C69.522 34.149 69.8051 34.2881 70.0659 34.1996C72.4163 33.4019 74.8352 32.7526 77.3115 32.2627C77.5817 32.2092 77.7576 31.9474 77.7054 31.6773Z" stroke="white" stroke-linecap="round" stroke-dasharray="8 8"/>
<circle opacity="0.3" cx="88.6372" cy="88.636" r="43.9067" transform="rotate(-90 88.6372 88.636)" fill="url(#paint0_linear_433_7653)"/>
<circle opacity="0.3" cx="88.6361" cy="88.6349" r="29.101" transform="rotate(-90 88.6361 88.6349)" fill="url(#paint1_linear_433_7653)"/>
<ellipse opacity="0.3" cx="88.5108" cy="88.6351" rx="11.7425" ry="11.8701" transform="rotate(-90 88.5108 88.6351)" fill="url(#paint2_linear_433_7653)"/>
<circle opacity="0.2" cx="128.124" cy="128.585" r="6.7647" transform="rotate(-90 128.124 128.585)" fill="url(#paint3_linear_433_7653)"/>
<defs>
<linearGradient id="paint0_linear_433_7653" x1="88.6372" y1="44.7293" x2="88.6372" y2="132.543" gradientUnits="userSpaceOnUse">
<stop stop-color="#C0C0C0"/>
<stop offset="1" stop-color="#EDEDED"/>
</linearGradient>
<linearGradient id="paint1_linear_433_7653" x1="88.6361" y1="59.534" x2="88.6361" y2="117.736" gradientUnits="userSpaceOnUse">
<stop stop-color="#C0C0C0"/>
<stop offset="1" stop-color="#EDEDED"/>
</linearGradient>
<linearGradient id="paint2_linear_433_7653" x1="88.5108" y1="76.7649" x2="88.5108" y2="100.505" gradientUnits="userSpaceOnUse">
<stop stop-color="#C0C0C0"/>
<stop offset="1" stop-color="#EDEDED"/>
</linearGradient>
<linearGradient id="paint3_linear_433_7653" x1="128.124" y1="121.82" x2="128.124" y2="135.35" gradientUnits="userSpaceOnUse">
<stop stop-color="#C0C0C0"/>
<stop offset="1" stop-color="#EDEDED"/>
</linearGradient>
</defs>
</svg>
